<svg width="24" height="24" viewBox="0 0 24 24" fill="none" xmlns="http://www.w3.org/2000/svg">
<path d="M7.25148 12C7.25148 11.59 7.59148 11.25 8.00148 11.25H11.0015V7.5C11.0015 6.95 10.5515 6.5 10.0015 6.5H7.77148C4.62148 6.5 1.88148 9.08 2.00148 12.22C2.06148 13.65 2.66148 14.94 3.61148 15.89C4.61148 16.88 5.98148 17.5 7.50148 17.5H10.0015C10.5515 17.5 11.0015 17.05 11.0015 16.5V12.75H8.00148C7.59148 12.75 7.25148 12.41 7.25148 12Z" fill="#0C0507"/>
<path d="M20.3915 8.11C19.3915 7.12 18.0215 6.5 16.5015 6.5H14.0015C13.4515 6.5 13.0015 6.95 13.0015 7.5V11.25H16.0015C16.4115 11.25 16.7515 11.59 16.7515 12C16.7515 12.41 16.4115 12.75 16.0015 12.75H13.0015V16.5C13.0015 17.05 13.4515 17.5 14.0015 17.5H16.2315C19.3815 17.5 22.1215 14.92 21.9915 11.78C21.9415 10.35 21.3315 9.06 20.3915 8.11Z" fill="#0C0507"/>
<path d="M13.0015 11.25H11.0015V12.75H13.0015V11.25Z" fill="#0C0507"/>
</svg>
