<svg width="24" height="24" viewBox="0 0 24 24" fill="none" xmlns="http://www.w3.org/2000/svg">
<path d="M12.2012 17.38C11.5012 17.38 10.7912 17.11 10.2612 16.58C9.74123 16.06 9.45123 15.37 9.45123 14.64C9.45123 13.91 9.74123 13.21 10.2612 12.7L11.6712 11.29C11.9612 11 12.4412 11 12.7312 11.29C13.0212 11.58 13.0212 12.06 12.7312 12.35L11.3212 13.76C11.0812 14 10.9512 14.31 10.9512 14.64C10.9512 14.97 11.0812 15.29 11.3212 15.52C11.8112 16.01 12.6012 16.01 13.0912 15.52L15.3112 13.3C16.5812 12.03 16.5812 9.97 15.3112 8.7C14.0412 7.43 11.9812 7.43 10.7112 8.7L8.2912 11.12C7.7812 11.63 7.50122 12.3 7.50122 13.01C7.50122 13.72 7.7812 14.4 8.2912 14.9C8.5812 15.19 8.5812 15.67 8.2912 15.96C8.0012 16.25 7.5212 16.25 7.2312 15.96C6.4412 15.17 6.01123 14.12 6.01123 13C6.01123 11.88 6.4412 10.83 7.2312 10.04L9.65125 7.61998C11.5012 5.76998 14.5212 5.76998 16.3712 7.61998C18.2212 9.46998 18.2212 12.49 16.3712 14.34L14.1512 16.56C13.6112 17.11 12.9112 17.38 12.2012 17.38Z" fill="#0C0507"/>
<path d="M15.0015 22.75H9.00146C3.57147 22.75 1.25146 20.43 1.25146 15V9C1.25146 3.57 3.57147 1.25 9.00146 1.25H15.0015C20.4315 1.25 22.7515 3.57 22.7515 9V15C22.7515 20.43 20.4315 22.75 15.0015 22.75ZM9.00146 2.75C4.39146 2.75 2.75146 4.39 2.75146 9V15C2.75146 19.61 4.39146 21.25 9.00146 21.25H15.0015C19.6115 21.25 21.2515 19.61 21.2515 15V9C21.2515 4.39 19.6115 2.75 15.0015 2.75H9.00146Z" fill="#0C0507"/>
</svg>
