<svg width="24" height="24" viewBox="0 0 24 24" fill="none" xmlns="http://www.w3.org/2000/svg">
<path d="M18.6115 6.68001C18.2015 6.68001 17.8615 6.34001 17.8615 5.93001V4.42001C17.8615 3.82001 17.3715 3.32001 16.7615 3.32001H3.83145C3.23145 3.32001 2.73146 3.81001 2.73146 4.42001V5.93001C2.73146 6.34001 2.39146 6.68001 1.98146 6.68001C1.57146 6.68001 1.24146 6.34001 1.24146 5.93001V4.42001C1.24146 2.99001 2.41146 1.82001 3.84145 1.82001H16.7615C18.1915 1.82001 19.3615 2.98001 19.3615 4.42001V5.93001C19.3615 6.34001 19.0215 6.68001 18.6115 6.68001Z" fill="#0C0507"/>
<path d="M10.3015 18.85C9.89145 18.85 9.55145 18.51 9.55145 18.1V3.32001C9.55145 2.91001 9.89145 2.57001 10.3015 2.57001C10.7115 2.57001 11.0515 2.91001 11.0515 3.32001V18.1C11.0515 18.52 10.7115 18.85 10.3015 18.85Z" fill="#0C0507"/>
<path d="M12.4815 18.85H6.90146C6.49146 18.85 6.15146 18.51 6.15146 18.1C6.15146 17.69 6.49146 17.35 6.90146 17.35H12.4815C12.8915 17.35 13.2315 17.69 13.2315 18.1C13.2315 18.51 12.8915 18.85 12.4815 18.85Z" fill="#0C0507"/>
<path d="M22.0115 13.2C21.6015 13.2 21.2615 12.86 21.2615 12.45V11.65C21.2615 11.34 21.0015 11.08 20.6915 11.08H13.6815C13.2715 11.08 12.9315 10.74 12.9315 10.33C12.9315 9.92002 13.2715 9.58002 13.6815 9.58002H20.6915C21.8315 9.58002 22.7615 10.51 22.7615 11.65V12.45C22.7615 12.87 22.4315 13.2 22.0115 13.2Z" fill="#0C0507"/>
<path d="M16.0815 22.18C15.6715 22.18 15.3315 21.84 15.3315 21.43V10.87C15.3315 10.46 15.6715 10.12 16.0815 10.12C16.4915 10.12 16.8315 10.46 16.8315 10.87V21.43C16.8315 21.84 16.4915 22.18 16.0815 22.18Z" fill="#0C0507"/>
<path d="M18.2215 22.18H13.9415C13.5315 22.18 13.1915 21.84 13.1915 21.43C13.1915 21.02 13.5315 20.68 13.9415 20.68H18.2215C18.6315 20.68 18.9715 21.02 18.9715 21.43C18.9715 21.84 18.6315 22.18 18.2215 22.18Z" fill="#0C0507"/>
</svg>
