<svg width="24" height="24" viewBox="0 0 24 24" fill="none" xmlns="http://www.w3.org/2000/svg">
<path d="M12.0015 12.75H4.88147C4.47147 12.75 4.13147 12.41 4.13147 12V4.5C4.13147 2.98 5.36147 1.75 6.88147 1.75H12.0015C15.0315 1.75 17.5015 4.22 17.5015 7.25C17.5015 10.28 15.0315 12.75 12.0015 12.75ZM5.62147 11.25H12.0015C14.2115 11.25 16.0015 9.46 16.0015 7.25C16.0015 5.04 14.2115 3.25 12.0015 3.25H6.88147C6.19147 3.25 5.63147 3.81 5.63147 4.5V11.25H5.62147Z" fill="#0C0507"/>
<path d="M14.3815 22.25H6.88147C5.36147 22.25 4.13147 21.02 4.13147 19.5V12C4.13147 11.59 4.47147 11.25 4.88147 11.25H14.3815C17.4115 11.25 19.8815 13.72 19.8815 16.75C19.8815 19.78 17.4115 22.25 14.3815 22.25ZM5.62147 12.75V19.5C5.62147 20.19 6.18147 20.75 6.87147 20.75H14.3715C16.5815 20.75 18.3715 18.96 18.3715 16.75C18.3715 14.54 16.5815 12.75 14.3715 12.75H5.62147Z" fill="#0C0507"/>
</svg>
