<svg width="24" height="24" viewBox="0 0 24 24" fill="none" xmlns="http://www.w3.org/2000/svg">
<path d="M18.8815 3.75H9.62147C9.21147 3.75 8.88147 3.41 8.88147 3C8.88147 2.59 9.22147 2.25 9.63147 2.25H18.8815C19.2915 2.25 19.6315 2.59 19.6315 3C19.6315 3.41 19.2915 3.75 18.8815 3.75Z" fill="#0C0507"/>
<path d="M14.3815 21.75H5.12146C4.71146 21.75 4.37146 21.41 4.37146 21C4.37146 20.59 4.71146 20.25 5.12146 20.25H14.3715C14.7815 20.25 15.1215 20.59 15.1215 21C15.1215 21.41 14.7915 21.75 14.3815 21.75Z" fill="#0C0507"/>
<path d="M9.75144 21.75C9.69144 21.75 9.63144 21.74 9.57144 21.73C9.17144 21.63 8.92144 21.22 9.02144 20.82L13.5214 2.81998C13.6214 2.41998 14.0214 2.16998 14.4314 2.26998C14.8314 2.36998 15.0814 2.77998 14.9814 3.17998L10.4814 21.18C10.3914 21.52 10.0914 21.75 9.75144 21.75Z" fill="#0C0507"/>
</svg>
