<svg width="24" height="24" viewBox="0 0 24 24" fill="none" xmlns="http://www.w3.org/2000/svg">
<path opacity="0.4" d="M16.1915 2H7.82147C4.18147 2 2.01147 4.17 2.01147 7.81V16.18C2.01147 19.82 4.18147 21.99 7.82147 21.99H16.1915C19.8315 21.99 22.0015 19.82 22.0015 16.18V7.81C22.0015 4.17 19.8315 2 16.1915 2Z" fill="#0C0507"/>
<path d="M12.2015 17.38C11.5015 17.38 10.7915 17.11 10.2615 16.58C9.74147 16.06 9.45148 15.37 9.45148 14.64C9.45148 13.91 9.74147 13.21 10.2615 12.7L11.6714 11.29C11.9614 11 12.4414 11 12.7314 11.29C13.0214 11.58 13.0214 12.06 12.7314 12.35L11.3215 13.76C11.0815 14 10.9515 14.31 10.9515 14.64C10.9515 14.97 11.0815 15.29 11.3215 15.52C11.8115 16.01 12.6015 16.01 13.0915 15.52L15.3115 13.3C16.5815 12.03 16.5815 9.97 15.3115 8.7C14.0415 7.43 11.9815 7.43 10.7115 8.7L8.29144 11.12C7.78144 11.63 7.50146 12.3 7.50146 13.01C7.50146 13.72 7.78144 14.4 8.29144 14.9C8.58144 15.19 8.58144 15.67 8.29144 15.96C8.00144 16.25 7.52145 16.25 7.23145 15.96C6.44145 15.17 6.01147 14.12 6.01147 13C6.01147 11.88 6.44145 10.83 7.23145 10.04L9.65149 7.61998C11.5015 5.76998 14.5215 5.76998 16.3715 7.61998C18.2215 9.46998 18.2215 12.49 16.3715 14.34L14.1515 16.56C13.6115 17.11 12.9115 17.38 12.2015 17.38Z" fill="#0C0507"/>
</svg>
