<svg width="24" height="24" viewBox="0 0 24 24" fill="none" xmlns="http://www.w3.org/2000/svg">
<path opacity="0.4" d="M16.19 2H7.81C4.17 2 2 4.17 2 7.81V16.18C2 19.83 4.17 22 7.81 22H16.18C19.82 22 21.99 19.83 21.99 16.19V7.81C22 4.17 19.83 2 16.19 2Z" fill="#0C0507"/>
<path d="M13.0601 12.0001L15.3601 9.70011C15.6501 9.41011 15.6501 8.93011 15.3601 8.64011C15.0701 8.35011 14.5901 8.35011 14.3001 8.64011L12.0001 10.9401L9.70011 8.64011C9.41011 8.35011 8.93011 8.35011 8.64011 8.64011C8.35011 8.93011 8.35011 9.41011 8.64011 9.70011L10.9401 12.0001L8.64011 14.3001C8.35011 14.5901 8.35011 15.0701 8.64011 15.3601C8.79011 15.5101 8.98011 15.5801 9.17011 15.5801C9.36011 15.5801 9.55011 15.5101 9.70011 15.3601L12.0001 13.0601L14.3001 15.3601C14.4501 15.5101 14.6401 15.5801 14.8301 15.5801C15.0201 15.5801 15.2101 15.5101 15.3601 15.3601C15.6501 15.0701 15.6501 14.5901 15.3601 14.3001L13.0601 12.0001Z" fill="#0C0507"/>
</svg>
