<svg width="24" height="24" viewBox="0 0 24 24" fill="none" xmlns="http://www.w3.org/2000/svg">
<path d="M21.3299 14.67C20.28 13.62 19.4499 13.96 18.7299 14.67L14.5799 18.82C14.4199 18.98 14.2699 19.29 14.2299 19.51L13.9999 21.0999C13.9199 21.6699 14.3199 22.08 14.8899 21.99L16.4799 21.76C16.6999 21.73 17.0099 21.5699 17.1699 21.4099L21.3199 17.26C22.0499 16.55 22.3799 15.72 21.3299 14.67Z" fill="#0C0507"/>
<path d="M8.38995 2.16998V8.62H1.92993V7.94C1.92993 4.33 4.07994 2.17999 7.68994 2.17999H8.38995V2.16998Z" fill="#0C0507"/>
<path d="M21.7698 7.92999C21.7698 8.30999 21.4598 8.60999 21.0898 8.60999H15.3398V2.15997H16.0098C19.1898 2.16997 21.7698 4.74999 21.7698 7.92999Z" fill="#0C0507"/>
<path d="M8.38995 15.55V21.31C8.38995 21.69 8.07996 21.99 7.70996 21.99H7.69995C4.51995 21.99 1.93994 19.41 1.93994 16.23V15.55H8.38995Z" fill="#0C0507"/>
<path opacity="0.4" d="M8.39996 8.60999H1.93994V15.55H8.39996V8.60999Z" fill="#0C0507"/>
<path d="M15.3299 8.60999V14.55C15.3299 15.1 14.8799 15.55 14.3299 15.55H8.38989V8.60999H15.3299Z" fill="#0C0507"/>
<path opacity="0.4" d="M15.3299 2.16998H8.38989V8.62H15.3299V2.16998Z" fill="#0C0507"/>
</svg>
