<svg width="24" height="24" viewBox="0 0 24 24" fill="none" xmlns="http://www.w3.org/2000/svg">
<path opacity="0.4" d="M11.0015 7.5V16.5C11.0015 17.05 10.5515 17.5 10.0015 17.5H7.50148C5.98148 17.5 4.61148 16.88 3.61148 15.89C2.67148 14.94 2.06148 13.65 2.00148 12.22C1.88148 9.08 4.62148 6.5 7.77148 6.5H10.0015C10.5515 6.5 11.0015 6.95 11.0015 7.5Z" fill="#0C0507"/>
<path opacity="0.4" d="M22.0015 11.78C22.1315 14.93 19.3915 17.5 16.2415 17.5H14.0115C13.4615 17.5 13.0115 17.05 13.0115 16.5V7.5C13.0115 6.95 13.4615 6.5 14.0115 6.5H16.5115C18.0315 6.5 19.4015 7.12 20.4015 8.11C21.3315 9.06 21.9415 10.35 22.0015 11.78Z" fill="#0C0507"/>
<path d="M16.0015 12.75H8.00146C7.59146 12.75 7.25146 12.41 7.25146 12C7.25146 11.59 7.59146 11.25 8.00146 11.25H16.0015C16.4115 11.25 16.7515 11.59 16.7515 12C16.7515 12.41 16.4115 12.75 16.0015 12.75Z" fill="#0C0507"/>
</svg>
