<svg width="24" height="24" viewBox="0 0 24 24" fill="none" xmlns="http://www.w3.org/2000/svg">
<path opacity="0.4" d="M16.19 2H7.81C4.17 2 2 4.17 2 7.81V16.18C2 19.83 4.17 22 7.81 22H16.18C19.82 22 21.99 19.83 21.99 16.19V7.81C22 4.17 19.83 2 16.19 2Z" fill="#0C0507"/>
<path d="M18.6904 5.71C18.6104 5.53 18.4704 5.38 18.2804 5.3C18.1904 5.27 18.1004 5.25 18.0004 5.25H14.0004C13.5904 5.25 13.2504 5.59 13.2504 6C13.2504 6.41 13.5904 6.75 14.0004 6.75H16.1904L12.4704 10.47C12.1804 10.76 12.1804 11.24 12.4704 11.53C12.6204 11.68 12.8104 11.75 13.0004 11.75C13.1904 11.75 13.3804 11.68 13.5304 11.53L17.2504 7.81V10C17.2504 10.41 17.5904 10.75 18.0004 10.75C18.4104 10.75 18.7504 10.41 18.7504 10V6C18.7504 5.9 18.7304 5.81 18.6904 5.71Z" fill="#0C0507"/>
<path d="M11.53 12.4699C11.24 12.1799 10.76 12.1799 10.47 12.4699L6.75 16.1899V13.9999C6.75 13.5899 6.41 13.2499 6 13.2499C5.59 13.2499 5.25 13.5899 5.25 13.9999V17.9999C5.25 18.0999 5.27 18.1899 5.31 18.2899C5.39 18.4699 5.53 18.6199 5.72 18.6999C5.8 18.7299 5.9 18.7499 6 18.7499H10C10.41 18.7499 10.75 18.4099 10.75 17.9999C10.75 17.5899 10.41 17.2499 10 17.2499H7.81L11.53 13.5299C11.82 13.2399 11.82 12.7599 11.53 12.4699Z" fill="#0C0507"/>
</svg>
