<svg width="24" height="24" viewBox="0 0 24 24" fill="none" xmlns="http://www.w3.org/2000/svg">
<path opacity="0.4" d="M22.0015 7.81V16.19C22.0015 19.83 19.8315 22 16.1915 22H7.81146C7.61146 22 7.41146 21.99 7.22146 21.98C5.99146 21.9 4.95146 21.55 4.13146 20.95C3.71147 20.66 3.34146 20.29 3.05146 19.87C2.36146 18.92 2.00146 17.68 2.00146 16.19V7.81C2.00146 4.37 3.94146 2.24 7.22146 2.03C7.41146 2.01 7.61146 2 7.81146 2H16.1915C17.6815 2 18.9215 2.36 19.8715 3.05C20.2915 3.34 20.6615 3.71 20.9515 4.13C21.6415 5.08 22.0015 6.32 22.0015 7.81Z" fill="#0C0507"/>
<path d="M15.8715 6.01001H10.4915C10.0815 6.01001 9.74148 6.35001 9.74148 6.76001C9.74148 7.17001 10.0815 7.51001 10.4915 7.51001H12.3815L10.1415 16.48H8.14148C7.73148 16.48 7.39148 16.82 7.39148 17.23C7.39148 17.64 7.73148 17.98 8.14148 17.98H13.5215C13.9315 17.98 14.2715 17.64 14.2715 17.23C14.2715 16.82 13.9315 16.48 13.5215 16.48H11.6815L13.9215 7.51001H15.8715C16.2815 7.51001 16.6215 7.17001 16.6215 6.76001C16.6215 6.35001 16.2815 6.01001 15.8715 6.01001Z" fill="#0C0507"/>
</svg>
