<svg width="112" height="32" viewBox="0 0 112 32" fill="none" xmlns="http://www.w3.org/2000/svg">
<g opacity="0.5">
<path d="M55.9693 10V2.72727H58.6966C59.2553 2.72727 59.724 2.83144 60.1028 3.03977C60.484 3.24811 60.7716 3.53456 60.9657 3.89915C61.1622 4.26136 61.2605 4.6733 61.2605 5.13494C61.2605 5.60133 61.1622 6.01562 60.9657 6.37784C60.7692 6.74006 60.4792 7.02533 60.0957 7.23366C59.7122 7.43963 59.2399 7.54261 58.6788 7.54261H56.8713V6.45952H58.5012C58.8279 6.45952 59.0955 6.4027 59.3038 6.28906C59.5121 6.17543 59.666 6.01918 59.7654 5.82031C59.8672 5.62145 59.9181 5.39299 59.9181 5.13494C59.9181 4.87689 59.8672 4.64962 59.7654 4.45312C59.666 4.25663 59.5109 4.10393 59.3002 3.99503C59.0919 3.88376 58.8232 3.82812 58.4941 3.82812H57.2868V10H55.9693ZM64.6491 10.1065C64.1165 10.1065 63.6548 9.98935 63.2642 9.75497C62.8736 9.5206 62.5705 9.19271 62.3551 8.77131C62.142 8.34991 62.0355 7.85748 62.0355 7.29403C62.0355 6.73059 62.142 6.23698 62.3551 5.81321C62.5705 5.38944 62.8736 5.06037 63.2642 4.82599C63.6548 4.59162 64.1165 4.47443 64.6491 4.47443C65.1818 4.47443 65.6435 4.59162 66.0341 4.82599C66.4247 5.06037 66.7266 5.38944 66.9396 5.81321C67.1551 6.23698 67.2628 6.73059 67.2628 7.29403C67.2628 7.85748 67.1551 8.34991 66.9396 8.77131C66.7266 9.19271 66.4247 9.5206 66.0341 9.75497C65.6435 9.98935 65.1818 10.1065 64.6491 10.1065ZM64.6562 9.0767C64.9451 9.0767 65.1866 8.9974 65.3807 8.83878C65.5748 8.67779 65.7192 8.46236 65.8139 8.19247C65.911 7.92259 65.9595 7.62192 65.9595 7.29048C65.9595 6.95668 65.911 6.65483 65.8139 6.38494C65.7192 6.11269 65.5748 5.89607 65.3807 5.73509C65.1866 5.5741 64.9451 5.49361 64.6562 5.49361C64.3603 5.49361 64.1141 5.5741 63.9176 5.73509C63.7235 5.89607 63.5779 6.11269 63.4808 6.38494C63.3861 6.65483 63.3388 6.95668 63.3388 7.29048C63.3388 7.62192 63.3861 7.92259 63.4808 8.19247C63.5779 8.46236 63.7235 8.67779 63.9176 8.83878C64.1141 8.9974 64.3603 9.0767 64.6562 9.0767ZM69.3233 10L67.7821 4.54545H69.0925L70.0513 8.38068H70.101L71.0811 4.54545H72.3773L73.3574 8.35938H73.4107L74.3553 4.54545H75.6692L74.1245 10H72.7857L71.763 6.31392H71.6884L70.6657 10H69.3233ZM78.8253 10.1065C78.2784 10.1065 77.8061 9.9929 77.4084 9.76562C77.013 9.53598 76.7088 9.21165 76.4957 8.79261C76.2827 8.37121 76.1761 7.87524 76.1761 7.30469C76.1761 6.74361 76.2827 6.25118 76.4957 5.82741C76.7112 5.40128 77.0118 5.06984 77.3977 4.8331C77.7836 4.59399 78.237 4.47443 78.7578 4.47443C79.094 4.47443 79.4112 4.52888 79.7095 4.63778C80.0102 4.74432 80.2753 4.91004 80.505 5.13494C80.737 5.35985 80.9193 5.64631 81.0518 5.99432C81.1844 6.33996 81.2507 6.75189 81.2507 7.23011V7.62429H76.7798V6.75781H80.0185C80.0161 6.5116 79.9628 6.29261 79.8587 6.10085C79.7545 5.90672 79.6089 5.75402 79.4219 5.64276C79.2372 5.53149 79.0218 5.47585 78.7756 5.47585C78.5128 5.47585 78.282 5.53977 78.0831 5.66761C77.8842 5.79309 77.7292 5.95881 77.6179 6.16477C77.509 6.36837 77.4534 6.59209 77.451 6.83594V7.59233C77.451 7.90956 77.509 8.18182 77.625 8.40909C77.741 8.634 77.9032 8.80682 78.1115 8.92756C78.3198 9.04593 78.5637 9.10511 78.843 9.10511C79.0301 9.10511 79.1993 9.07907 79.3509 9.02699C79.5024 8.97254 79.6338 8.89323 79.745 8.78906C79.8563 8.6849 79.9403 8.55587 79.9972 8.40199L81.1974 8.53693C81.1217 8.85417 80.9773 9.13116 80.7642 9.3679C80.5535 9.60227 80.2836 9.78456 79.9545 9.91477C79.6255 10.0426 79.2491 10.1065 78.8253 10.1065ZM82.3382 10V4.54545H83.5847V5.45455H83.6415C83.7409 5.13968 83.9114 4.89702 84.1529 4.72656C84.3967 4.55374 84.6749 4.46733 84.9874 4.46733C85.0584 4.46733 85.1377 4.47088 85.2253 4.47798C85.3153 4.48272 85.3899 4.491 85.449 4.50284V5.68537C85.3946 5.66643 85.3082 5.64986 85.1898 5.63565C85.0738 5.61908 84.9614 5.6108 84.8525 5.6108C84.6181 5.6108 84.4074 5.66169 84.2203 5.76349C84.0357 5.86293 83.8901 6.00142 83.7836 6.17898C83.677 6.35653 83.6238 6.56132 83.6238 6.79332V10H82.3382ZM88.4933 10.1065C87.9464 10.1065 87.4741 9.9929 87.0763 9.76562C86.681 9.53598 86.3768 9.21165 86.1637 8.79261C85.9506 8.37121 85.8441 7.87524 85.8441 7.30469C85.8441 6.74361 85.9506 6.25118 86.1637 5.82741C86.3791 5.40128 86.6798 5.06984 87.0657 4.8331C87.4516 4.59399 87.9049 4.47443 88.4258 4.47443C88.762 4.47443 89.0792 4.52888 89.3775 4.63778C89.6781 4.74432 89.9433 4.91004 90.1729 5.13494C90.4049 5.35985 90.5872 5.64631 90.7198 5.99432C90.8524 6.33996 90.9187 6.75189 90.9187 7.23011V7.62429H86.4478V6.75781H89.6864C89.6841 6.5116 89.6308 6.29261 89.5266 6.10085C89.4225 5.90672 89.2769 5.75402 89.0898 5.64276C88.9052 5.53149 88.6897 5.47585 88.4435 5.47585C88.1808 5.47585 87.9499 5.53977 87.7511 5.66761C87.5522 5.79309 87.3971 5.95881 87.2859 6.16477C87.177 6.36837 87.1213 6.59209 87.119 6.83594V7.59233C87.119 7.90956 87.177 8.18182 87.293 8.40909C87.409 8.634 87.5711 8.80682 87.7795 8.92756C87.9878 9.04593 88.2317 9.10511 88.511 9.10511C88.698 9.10511 88.8673 9.07907 89.0188 9.02699C89.1703 8.97254 89.3017 8.89323 89.413 8.78906C89.5243 8.6849 89.6083 8.55587 89.6651 8.40199L90.8654 8.53693C90.7897 8.85417 90.6452 9.13116 90.4322 9.3679C90.2215 9.60227 89.9516 9.78456 89.6225 9.91477C89.2934 10.0426 88.917 10.1065 88.4933 10.1065ZM94.0304 10.0959C93.6019 10.0959 93.2183 9.9858 92.8798 9.76562C92.5413 9.54545 92.2737 9.22585 92.0772 8.80682C91.8807 8.38778 91.7825 7.87879 91.7825 7.27983C91.7825 6.67377 91.8819 6.16241 92.0808 5.74574C92.282 5.3267 92.5531 5.01065 92.894 4.79759C93.2349 4.58215 93.6149 4.47443 94.0339 4.47443C94.3535 4.47443 94.6163 4.52888 94.8223 4.63778C95.0282 4.74432 95.1916 4.87334 95.3123 5.02486C95.4331 5.17401 95.5266 5.31487 95.5929 5.44744H95.6461V2.72727H96.9352V10H95.671V9.14062H95.5929C95.5266 9.2732 95.4307 9.41406 95.3052 9.56321C95.1797 9.70999 95.014 9.83546 94.8081 9.93963C94.6021 10.0438 94.3429 10.0959 94.0304 10.0959ZM94.389 9.04119C94.6613 9.04119 94.8933 8.9678 95.085 8.82102C95.2768 8.67187 95.4224 8.46473 95.5218 8.19957C95.6213 7.93442 95.671 7.62547 95.671 7.27273C95.671 6.91998 95.6213 6.6134 95.5218 6.35298C95.4248 6.09257 95.2804 5.89015 95.0886 5.74574C94.8992 5.60133 94.666 5.52912 94.389 5.52912C94.1026 5.52912 93.8635 5.60369 93.6717 5.75284C93.4799 5.90199 93.3355 6.10795 93.2385 6.37074C93.1414 6.63352 93.0929 6.93419 93.0929 7.27273C93.0929 7.61364 93.1414 7.91785 93.2385 8.18537C93.3379 8.45052 93.4835 8.66004 93.6752 8.81392C93.8694 8.96544 94.1073 9.04119 94.389 9.04119ZM100.842 10V2.72727H102.128V5.44744H102.181C102.247 5.31487 102.341 5.17401 102.462 5.02486C102.582 4.87334 102.746 4.74432 102.952 4.63778C103.158 4.52888 103.42 4.47443 103.74 4.47443C104.161 4.47443 104.541 4.58215 104.88 4.79759C105.221 5.01065 105.491 5.3267 105.69 5.74574C105.891 6.16241 105.991 6.67377 105.991 7.27983C105.991 7.87879 105.893 8.38778 105.697 8.80682C105.5 9.22585 105.233 9.54545 104.894 9.76562C104.556 9.9858 104.172 10.0959 103.744 10.0959C103.431 10.0959 103.172 10.0438 102.966 9.93963C102.76 9.83546 102.594 9.70999 102.469 9.56321C102.346 9.41406 102.25 9.2732 102.181 9.14062H102.107V10H100.842ZM102.103 7.27273C102.103 7.62547 102.153 7.93442 102.252 8.19957C102.354 8.46473 102.5 8.67187 102.689 8.82102C102.881 8.9678 103.113 9.04119 103.385 9.04119C103.669 9.04119 103.907 8.96544 104.099 8.81392C104.29 8.66004 104.435 8.45052 104.532 8.18537C104.631 7.91785 104.681 7.61364 104.681 7.27273C104.681 6.93419 104.633 6.63352 104.536 6.37074C104.438 6.10795 104.294 5.90199 104.102 5.75284C103.911 5.60369 103.671 5.52912 103.385 5.52912C103.11 5.52912 102.877 5.60133 102.685 5.74574C102.494 5.89015 102.348 6.09257 102.249 6.35298C102.152 6.6134 102.103 6.91998 102.103 7.27273ZM107.698 12.0455C107.523 12.0455 107.36 12.0313 107.211 12.0028C107.065 11.9768 106.947 11.946 106.86 11.9105L107.158 10.9091C107.345 10.9635 107.512 10.9896 107.659 10.9872C107.806 10.9848 107.935 10.9387 108.046 10.8487C108.159 10.7611 108.255 10.6143 108.333 10.4084L108.444 10.1136L106.466 4.54545H107.829L109.086 8.66477H109.143L110.404 4.54545H111.771L109.587 10.6605C109.485 10.9493 109.35 11.1967 109.182 11.4027C109.014 11.611 108.808 11.7696 108.564 11.8786C108.323 11.9898 108.034 12.0455 107.698 12.0455Z" fill="#365063"/>
<g clip-path="url(#clip0_3223_155)">
<path d="M71.644 25.4714L76.2857 31.6571H79.8156L74.1939 24.2903C73.889 23.8825 73.758 23.5812 73.758 23.2807C73.758 22.9801 73.9541 22.7007 74.3242 22.2929L79.7068 16.3006H76.1547L71.5789 21.4123C70.8816 22.2068 70.5545 22.7656 70.5545 23.3025C70.5545 23.9898 70.9468 24.5479 71.644 25.4714ZM96.158 24.0109C96.158 19.544 99.3178 16 104.025 16C108.731 16 112 19.3507 112 24.0109C112 28.6712 108.644 31.9576 104.047 31.9576C99.1223 31.9576 96.1587 28.5646 96.1587 24.0109H96.158ZM108.949 23.9898C108.949 20.8542 107.01 18.5344 104.046 18.5344C101.082 18.5344 99.2083 20.8112 99.2083 23.9898C99.2083 27.1683 101.213 29.4663 104.046 29.4663C107.031 29.4663 108.949 27.1041 108.949 23.9898ZM87.5941 31.6571H82.0813V29.1227H88.1389C89.882 29.1227 90.7754 28.6718 90.7754 27.4689C90.7754 26.395 90.0782 26.0514 88.1826 25.5356L86.3743 25.0418C82.9969 24.1182 81.8637 23.0443 81.8637 20.5099C81.8637 17.9756 83.3892 16.3006 87.0716 16.3006H92.5844V18.878H87.0279C85.4809 18.878 84.7178 19.2216 84.7178 20.3166C84.7178 21.3475 85.4151 21.8413 87.2019 22.2922L89.076 22.7649C92.2136 23.5594 93.6954 24.6763 93.6954 27.1676C93.6954 30.0456 92.0826 31.6564 87.5941 31.6564V31.6571ZM60.4215 32.0007C56.4342 32.0007 54.0368 29.896 54.0368 25.7727V16.3224H56.9567V25.5999C56.9567 27.8337 57.6762 29.4656 60.4215 29.4656C63.1668 29.4656 63.8863 27.9409 63.8863 25.578V16.3006H66.8063V25.7508C66.8063 29.8318 64.4096 32.0007 60.4215 32.0007ZM46.0184 16.3224H43.0769V28.7361C43.0769 30.7977 43.9488 31.6571 45.7134 31.6571H51.4009V29.1446H47.1301C46.2804 29.1446 46.0191 28.887 46.0191 28.0707V16.3224H46.0184Z" fill="#243542"/>
</g>
</g>
<defs>
<clipPath id="clip0_3223_155">
<rect width="68.9231" height="16" fill="white" transform="translate(43.0769 16)"/>
</clipPath>
</defs>
</svg>
