<svg width="28" height="28" viewBox="0 0 28 28" fill="none" xmlns="http://www.w3.org/2000/svg">
<rect width="28" height="28" rx="14" fill="#243542"/>
<path fill-rule="evenodd" clip-rule="evenodd" d="M13.997 4.90002C11.7223 4.9012 9.52212 5.70687 7.78998 7.17295C6.05784 8.63904 4.90665 10.6699 4.54225 12.9025C4.17785 15.1351 4.624 17.4238 5.80093 19.3593C6.97787 21.2948 8.80883 22.7509 10.9664 23.4674C11.4424 23.5557 11.6217 23.2607 11.6217 23.0098C11.6217 22.759 11.6122 22.0317 11.609 21.2366C8.94342 21.8124 8.38016 20.1117 8.38016 20.1117C7.94541 19.0074 7.31708 18.7171 7.31708 18.7171C6.44759 18.127 7.38214 18.1381 7.38214 18.1381C8.34525 18.2059 8.8514 19.1209 8.8514 19.1209C9.70503 20.5771 11.0934 20.1559 11.6392 19.9098C11.7249 19.2929 11.974 18.8733 12.2485 18.635C10.1192 18.3952 7.88194 17.578 7.88194 13.9273C7.86874 12.9805 8.22208 12.0649 8.86885 11.37C8.77048 11.1302 8.44203 10.1615 8.96246 8.84572C8.96246 8.84572 9.76691 8.59015 11.5979 9.82229C13.1685 9.39524 14.8255 9.39524 16.396 9.82229C18.2255 8.59015 19.0283 8.84572 19.0283 8.84572C19.5503 10.1583 19.2219 11.127 19.1235 11.37C19.7723 12.0651 20.1264 12.9823 20.112 13.9305C20.112 17.589 17.87 18.3952 15.7376 18.6303C16.0803 18.9269 16.3865 19.5059 16.3865 20.3957C16.3865 21.6704 16.3754 22.6959 16.3754 23.0098C16.3754 23.2638 16.5483 23.5604 17.0339 23.4674C19.1917 22.7509 21.0229 21.2945 22.1998 19.3586C23.3767 17.4228 23.8226 15.1338 23.4578 12.901C23.093 10.6682 21.9412 8.63726 20.2085 7.17142C18.4758 5.70559 16.2751 4.90046 14.0001 4.90002H13.997Z" fill="white"/>
<path d="M8.04348 18.5798C8.02285 18.6272 7.94669 18.6414 7.88481 18.6082C7.82293 18.5751 7.77692 18.5136 7.79913 18.4647C7.82135 18.4157 7.89592 18.4031 7.9578 18.4363C8.01968 18.4694 8.06728 18.5325 8.04348 18.5798Z" fill="white"/>
<path d="M8.43207 19.0105C8.39922 19.0269 8.36162 19.0315 8.32573 19.0234C8.28984 19.0154 8.25789 18.9952 8.23533 18.9663C8.17345 18.9 8.16075 18.8085 8.20835 18.7675C8.25595 18.7265 8.34164 18.7454 8.40352 18.8117C8.4654 18.8779 8.47968 18.9694 8.43207 19.0105Z" fill="white"/>
<path d="M8.80988 19.5579C8.75118 19.5989 8.65121 19.5579 8.59568 19.4758C8.58032 19.4611 8.56811 19.4435 8.55977 19.424C8.55142 19.4044 8.54712 19.3835 8.54712 19.3622C8.54712 19.341 8.55142 19.3201 8.55977 19.3005C8.56811 19.281 8.58032 19.2634 8.59568 19.2487C8.65438 19.2092 8.75435 19.2487 8.80988 19.3291C8.86542 19.4096 8.867 19.5169 8.80988 19.5579Z" fill="white"/>
<path d="M9.32237 20.0881C9.27001 20.1464 9.16371 20.1307 9.07644 20.0518C8.98917 19.9729 8.96854 19.8656 9.0209 19.8088C9.07326 19.752 9.17957 19.7678 9.27001 19.8451C9.36045 19.9224 9.37791 20.0313 9.32237 20.0881Z" fill="white"/>
<path d="M10.0412 20.3972C10.0174 20.4714 9.90951 20.5045 9.80162 20.473C9.69373 20.4414 9.62233 20.3531 9.64295 20.2773C9.66358 20.2016 9.77306 20.1669 9.88254 20.2016C9.99202 20.2363 10.0618 20.3199 10.0412 20.3972Z" fill="white"/>
<path d="M10.825 20.4508C10.825 20.5281 10.7362 20.5944 10.6219 20.596C10.5077 20.5975 10.4141 20.5344 10.4141 20.4571C10.4141 20.3798 10.5029 20.3136 10.6172 20.312C10.7314 20.3104 10.825 20.3719 10.825 20.4508Z" fill="white"/>
<path d="M11.5546 20.3294C11.5689 20.4067 11.4896 20.4872 11.3754 20.5061C11.2611 20.5251 11.1612 20.4793 11.1469 20.4036C11.1326 20.3279 11.2151 20.2458 11.3262 20.2253C11.4372 20.2048 11.5404 20.2521 11.5546 20.3294Z" fill="white"/>
</svg>
