<svg width="44" height="48" viewBox="0 0 44 48" fill="none" xmlns="http://www.w3.org/2000/svg">
<path d="M39.6957 9.10714L25.8281 1.10449C23.3725 -0.318032 20.3367 -0.318032 17.8811 1.10449L4.01355 9.10714C1.55792 10.5297 0.0400391 13.1522 0.0400391 15.9893V32.0025C0.0400391 34.8396 1.55792 37.4621 4.01355 38.8846L17.8811 46.8952C20.3367 48.3177 23.3725 48.3177 25.8281 46.8952L39.6957 38.8846C42.1513 37.4621 43.6692 34.8396 43.6692 32.0025V15.9893C43.6692 13.1522 42.1592 10.5297 39.6957 9.10714ZM32.8612 25.5893L28.7367 32.7336C28.1725 33.7191 27.1235 34.323 25.9871 34.323H17.7301C16.5937 34.323 15.5447 33.7191 14.9804 32.7336L10.848 25.5893C10.2837 24.6038 10.2837 23.3959 10.848 22.4104L14.9725 15.2661C15.5367 14.2806 16.5857 13.6767 17.7222 13.6767H25.9712C27.1076 13.6767 28.1566 14.2806 28.7208 15.2661L32.8453 22.4104C33.4255 23.3959 33.4255 24.6038 32.8612 25.5893Z" fill="#FE005B"/>
</svg>
